<svg width="177" height="177" viewBox="0 0 177 177" fill="none" xmlns="http://www.w3.org/2000/svg">
<path d="M45.8842 109.641C45.4772 109.264 45.1968 108.841 45.0429 108.371C44.8851 107.898 44.8631 107.423 44.9769 106.947C45.0904 106.463 45.332 106.022 45.7016 105.623C46.1545 105.134 46.6714 104.835 47.2522 104.726C47.833 104.616 48.4008 104.71 48.9556 105.005L47.9337 106.109C47.6854 106.032 47.4456 106.028 47.2143 106.097C46.9866 106.162 46.7839 106.291 46.6064 106.483C46.3201 106.792 46.1958 107.142 46.2335 107.533C46.2711 107.924 46.4699 108.286 46.83 108.62C47.19 108.953 47.5664 109.123 47.9592 109.131C48.3519 109.139 48.6915 108.988 48.9778 108.679C49.1553 108.487 49.268 108.275 49.3157 108.043C49.367 107.807 49.3446 107.568 49.2485 107.327L50.2704 106.223C50.6078 106.754 50.7444 107.313 50.6801 107.9C50.612 108.484 50.3514 109.02 49.8984 109.509C49.5288 109.909 49.1092 110.185 48.6396 110.339C48.1697 110.485 47.6947 110.5 47.2147 110.382C46.7346 110.265 46.2911 110.018 45.8842 109.641ZM50.42 105.591C50.0835 105.279 49.846 104.943 49.7076 104.582C49.5729 104.217 49.5385 103.862 49.6044 103.516C49.6704 103.17 49.8284 102.862 50.0785 102.592C50.2923 102.361 50.5258 102.203 50.7792 102.118C51.0362 102.029 51.2845 102.008 51.5241 102.055L51.0604 101.626L51.9899 100.622L55.2652 103.655L54.3357 104.659L53.872 104.23C53.934 104.469 53.9304 104.72 53.8613 104.983C53.7957 105.242 53.6561 105.487 53.4423 105.718C53.1958 105.984 52.9027 106.163 52.5628 106.255C52.219 106.344 51.8601 106.335 51.4862 106.229C51.1119 106.115 50.7566 105.902 50.42 105.591ZM52.698 103.142C52.4476 102.91 52.1847 102.798 51.9095 102.805C51.6379 102.808 51.4096 102.909 51.2248 103.108C51.04 103.308 50.9548 103.545 50.9691 103.82C50.9832 104.088 51.1154 104.337 51.3658 104.569C51.6163 104.801 51.8793 104.917 52.1548 104.918C52.43 104.911 52.6601 104.808 52.8449 104.609C53.0297 104.409 53.1131 104.174 53.0952 103.903C53.0808 103.628 52.9484 103.374 52.698 103.142ZM54.4752 97.8677C54.8303 97.4842 55.2382 97.2949 55.6988 97.2999C56.1592 97.2973 56.6065 97.4971 57.0409 97.8993L58.9544 99.6714L58.0303 100.669L56.2518 99.0222C56.0327 98.8193 55.8099 98.7184 55.5835 98.7195C55.3571 98.7207 55.1551 98.8171 54.9776 99.0089C54.8 99.2006 54.7193 99.4094 54.7355 99.6352C54.7518 99.861 54.8694 100.075 55.0886 100.278L56.8671 101.925L55.9376 102.929L52.6623 99.896L53.5918 98.8923L54.0262 99.2945C53.9756 99.0587 53.9889 98.8166 54.0662 98.5683C54.1396 98.3164 54.2759 98.0829 54.4752 97.8677ZM57.7778 97.6569C57.4374 97.3416 57.2034 96.9978 57.0759 96.6252C56.952 96.2488 56.9357 95.8739 57.027 95.5006C57.122 95.1233 57.3181 94.7742 57.6152 94.4533C57.9957 94.0425 58.4204 93.7997 58.8893 93.7251C59.3618 93.6466 59.8336 93.7455 60.3046 94.0217L59.3153 95.09C58.9815 94.9481 58.695 95.0063 58.4559 95.2646C58.2856 95.4485 58.2221 95.6623 58.2654 95.9059C58.3048 96.1459 58.4575 96.3892 58.7236 96.6356C58.9897 96.882 59.2459 97.0175 59.4922 97.042C59.7345 97.0629 59.9408 96.9813 60.1111 96.7974C60.3503 96.5391 60.3863 96.2491 60.2193 95.9271L61.2085 94.8588C61.5123 95.3001 61.6451 95.761 61.607 96.2418C61.5688 96.7226 61.3613 97.1664 60.9844 97.5734C60.6873 97.8943 60.3543 98.1165 59.9854 98.2401C59.6201 98.3598 59.2451 98.3724 58.8603 98.2777C58.4791 98.1791 58.1183 97.9722 57.7778 97.6569ZM64.0601 90.767C64.154 90.854 64.2464 90.9504 64.3373 91.0564L62.2337 93.328C62.4517 93.5008 62.668 93.5811 62.8826 93.5691C63.097 93.5496 63.2821 93.4557 63.4379 93.2874C63.6698 93.037 63.7254 92.765 63.6047 92.4715L64.594 91.4032C64.7585 91.6573 64.8598 91.9364 64.8979 92.2407C64.9396 92.541 64.9097 92.8441 64.8083 93.1499C64.7068 93.4557 64.5328 93.7416 64.2864 94.0077C63.9893 94.3286 63.6563 94.5509 63.2874 94.6745C62.9185 94.7981 62.5416 94.8125 62.1568 94.7179C61.772 94.6232 61.4094 94.4182 61.069 94.103C60.7285 93.7877 60.4945 93.4438 60.367 93.0713C60.2431 92.6949 60.2286 92.318 60.3236 91.9408C60.4186 91.5635 60.6164 91.2125 60.9172 90.8877C61.2107 90.5707 61.5382 90.3506 61.8995 90.2272C62.2608 90.1039 62.6282 90.0879 63.0016 90.1793C63.3785 90.2667 63.7314 90.4626 64.0601 90.767ZM62.8447 91.5496C62.6725 91.3902 62.4812 91.322 62.2708 91.3452C62.0603 91.3684 61.8735 91.468 61.7105 91.6441C61.5547 91.8124 61.4713 92.0005 61.4604 92.2085C61.4532 92.4126 61.5268 92.6116 61.6815 92.8057L62.8447 91.5496ZM62.8268 86.7768L67.1704 90.7992L66.2409 91.803L61.8973 87.7806L62.8268 86.7768ZM64.4299 85.0457L68.7735 89.0681L67.844 90.0718L63.5004 86.0495L64.4299 85.0457ZM67.6188 87.0183C67.2822 86.7067 67.0448 86.3705 66.9064 86.0097C66.7716 85.645 66.7372 85.2897 66.8032 84.9437C66.8692 84.5978 67.0272 84.2898 67.2772 84.0198C67.491 83.7889 67.7246 83.6309 67.9779 83.5456C68.2349 83.4565 68.4832 83.4357 68.7228 83.4831L68.2591 83.0537L69.1886 82.0499L72.4639 85.083L71.5344 86.0868L71.0707 85.6573C71.1327 85.8965 71.1291 86.1476 71.06 86.4107C70.9945 86.6698 70.8548 86.9148 70.641 87.1457C70.3946 87.4118 70.1014 87.591 69.7615 87.6833C69.4177 87.772 69.0589 87.7631 68.6849 87.6567C68.3107 87.5428 67.9553 87.33 67.6188 87.0183ZM69.8967 84.5702C69.6463 84.3383 69.3835 84.2257 69.1082 84.2325C68.8366 84.2354 68.6084 84.3366 68.4236 84.5362C68.2388 84.7358 68.1535 84.973 68.1679 85.248C68.1819 85.5154 68.3141 85.7651 68.5646 85.997C68.815 86.2289 69.078 86.3452 69.3535 86.346C69.6288 86.3392 69.8588 86.236 70.0436 86.0364C70.2284 85.8369 70.3119 85.6016 70.2939 85.3305C70.2796 85.0556 70.1472 84.8021 69.8967 84.5702ZM73.9757 81.7432L74.8268 82.5314L74.3539 83.0421C74.0169 83.406 73.6662 83.6082 73.3016 83.6486C72.9332 83.6854 72.5474 83.5171 72.1444 83.1439L70.8413 81.9372L70.4717 82.3363L69.6382 81.5644L70.0078 81.1653L69.2095 80.4261L70.139 79.4223L70.9373 80.1616L71.5461 79.5042L72.3796 80.276L71.7708 80.9334L73.0856 82.151C73.1834 82.2416 73.2756 82.2834 73.3622 82.2763C73.4487 82.2692 73.5427 82.2109 73.6442 82.1013L73.9757 81.7432ZM72.1963 78.1191C72.0332 78.2952 71.8483 78.3929 71.6414 78.4122C71.4343 78.4239 71.2545 78.3591 71.1018 78.2178C70.9453 78.0728 70.8669 77.8985 70.8666 77.6947C70.8661 77.4834 70.9473 77.2896 71.1104 77.1136C71.2698 76.9414 71.4531 76.8494 71.6602 76.8377C71.8671 76.8184 72.0488 76.8813 72.2053 77.0262C72.3579 77.1676 72.4345 77.3439 72.435 77.5552C72.4353 77.759 72.3557 77.947 72.1963 78.1191ZM72.9988 77.9355L76.2741 80.9686L75.3446 81.9723L72.0693 78.9392L72.9988 77.9355ZM78.3753 78.7938C78.0781 79.1146 77.7415 79.3408 77.3654 79.4722C76.9929 79.5998 76.6106 79.6201 76.2185 79.5333C75.8301 79.4425 75.4657 79.2395 75.1252 78.9242C74.7887 78.6126 74.5621 78.2646 74.4454 77.8804C74.3249 77.4925 74.3157 77.106 74.4179 76.7209C74.5201 76.3358 74.7198 75.9828 75.0169 75.662C75.3141 75.3411 75.6507 75.1149 76.0269 74.9835C76.403 74.8521 76.789 74.8316 77.185 74.922C77.5771 75.0089 77.9414 75.2081 78.2779 75.5198C78.6144 75.8314 78.8412 76.1831 78.9581 76.5749C79.0747 76.9592 79.0802 77.3458 78.9743 77.7348C78.8721 78.1199 78.6724 78.4729 78.3753 78.7938ZM77.5066 77.9893C77.6841 77.7976 77.7641 77.5699 77.7464 77.3064C77.7324 77.039 77.5943 76.7839 77.3321 76.5411C77.0699 76.2983 76.8068 76.1782 76.5427 76.1808C76.2822 76.1795 76.0632 76.2747 75.8857 76.4664C75.7045 76.6621 75.6245 76.8897 75.6458 77.1493C75.6632 77.4053 75.8049 77.6565 76.071 77.9029C76.3332 78.1457 76.5927 78.2697 76.8495 78.2749C77.11 78.2763 77.329 78.181 77.5066 77.9893ZM78.9463 71.4424C79.3014 71.0589 79.7093 70.8697 80.1699 70.8746C80.6302 70.872 81.0776 71.0719 81.5119 71.4741L83.4254 73.2461L82.5014 74.244L80.7229 72.597C80.5037 72.3941 80.2809 72.2932 80.0546 72.2943C79.8282 72.2954 79.6262 72.3919 79.4486 72.5836C79.271 72.7754 79.1904 72.9842 79.2066 73.21C79.2228 73.4358 79.3405 73.6502 79.5596 73.8531L81.3382 75.5001L80.4087 76.5038L77.1333 73.4707L78.0628 72.467L78.4972 72.8693C78.4466 72.6334 78.46 72.3914 78.5373 72.1431C78.6106 71.8912 78.7469 71.6576 78.9463 71.4424ZM83.4233 67.7735C83.352 67.4894 83.347 67.2122 83.4084 66.9419C83.4658 66.6679 83.5941 66.4234 83.7934 66.2081L84.8559 67.192L84.6004 67.4679C84.3685 67.7183 84.2493 67.9569 84.2429 68.1836C84.2326 68.4066 84.3625 68.6432 84.6325 68.8932L86.1527 70.301L85.2232 71.3048L81.9479 68.2717L82.8774 67.2679L83.4233 67.7735ZM88.7169 64.1411C88.8108 64.2281 88.9032 64.3246 88.9941 64.4305L86.8905 66.7021C87.1085 66.8749 87.3248 66.9553 87.5395 66.9433C87.7538 66.9237 87.9389 66.8298 88.0947 66.6615C88.3267 66.4111 88.3823 66.1391 88.2616 65.8456L89.2508 64.7773C89.4153 65.0314 89.5166 65.3106 89.5547 65.6148C89.5965 65.9151 89.5666 66.2182 89.4651 66.524C89.3636 66.8298 89.1897 67.1158 88.9433 67.3819C88.6461 67.7028 88.3131 67.925 87.9442 68.0486C87.5753 68.1722 87.1985 68.1867 86.8137 68.092C86.4289 67.9973 86.0662 67.7924 85.7258 67.4771C85.3853 67.1618 85.1514 66.818 85.0238 66.4454C84.8999 66.069 84.8855 65.6922 84.9804 65.3149C85.0754 64.9376 85.2733 64.5866 85.574 64.2618C85.8676 63.9448 86.195 63.7247 86.5563 63.6014C86.9177 63.4781 87.285 63.4621 87.6584 63.5534C88.0354 63.6408 88.3882 63.8367 88.7169 64.1411ZM87.5015 64.9237C87.3294 64.7643 87.1381 64.6962 86.9276 64.7193C86.7171 64.7425 86.5304 64.8421 86.3673 65.0182C86.2115 65.1865 86.1281 65.3746 86.1173 65.5826C86.11 65.7867 86.1837 65.9858 86.3383 66.1799L87.5015 64.9237ZM89.0812 63.8656C88.7564 63.5648 88.5284 63.2301 88.3973 62.8615C88.2697 62.489 88.2406 62.124 88.3099 61.7666C88.3789 61.4017 88.5385 61.0842 88.7885 60.8142C88.9806 60.6068 89.1899 60.4553 89.4164 60.3598C89.6391 60.2607 89.8621 60.2201 90.0854 60.2379L89.7097 59.89L90.6392 58.8863L95.4759 63.3653L94.5464 64.369L92.5742 62.5426C92.606 62.7829 92.587 63.0233 92.5169 63.2638C92.4505 63.5003 92.3213 63.7223 92.1293 63.9297C91.8828 64.1958 91.5841 64.3771 91.2331 64.4736C90.882 64.5701 90.5159 64.569 90.1347 64.4705C89.7571 64.368 89.406 64.1663 89.0812 63.8656ZM91.3474 61.4066C91.1713 61.2435 90.992 61.1428 90.8093 61.1046C90.6264 61.0587 90.4549 61.0634 90.2947 61.1186C90.1306 61.1702 89.9924 61.2567 89.8801 61.378C89.7714 61.4954 89.6976 61.6379 89.6587 61.8054C89.616 61.9693 89.6226 62.1427 89.6787 62.3255C89.7348 62.5082 89.8509 62.6811 90.027 62.8442C90.2031 63.0073 90.3844 63.1098 90.5709 63.1517C90.7535 63.19 90.9269 63.1833 91.091 63.1317C91.2511 63.0765 91.3856 62.9902 91.4943 62.8728C91.603 62.7554 91.6787 62.6147 91.7215 62.4508C91.764 62.2794 91.7554 62.1042 91.6957 61.9253C91.6396 61.7426 91.5235 61.5696 91.3474 61.4066ZM94.3067 54.9259L97.582 57.959L96.6525 58.9627L96.2064 58.5496C96.257 58.7855 96.2458 59.0331 96.1727 59.2925C96.0993 59.5444 95.9648 59.776 95.7691 59.9873C95.5372 60.2378 95.2777 60.4081 94.9906 60.4984C94.6995 60.5851 94.3994 60.5834 94.0903 60.4934C93.7811 60.4033 93.4837 60.2261 93.198 59.9615L91.2845 58.1895L92.2086 57.1916L93.9871 58.8386C94.2062 59.0416 94.429 59.1425 94.6554 59.1413C94.8818 59.1402 95.0838 59.0437 95.2613 58.852C95.4425 58.6563 95.525 58.4456 95.5088 58.2198C95.4926 57.994 95.3749 57.7796 95.1558 57.5767L93.3772 55.9297L94.3067 54.9259ZM99.4184 52.5851C99.5123 52.6721 99.6047 52.7685 99.6955 52.8745L97.5919 55.1461C97.8099 55.3189 98.0262 55.3993 98.2409 55.3872C98.4553 55.3677 98.6404 55.2738 98.7962 55.1055C99.0281 54.8551 99.0837 54.5831 98.963 54.2896L99.9523 53.2213C100.117 53.4754 100.218 53.7545 100.256 54.0588C100.298 54.3591 100.268 54.6622 100.167 54.968C100.065 55.2738 99.8911 55.5598 99.6447 55.8259C99.3475 56.1467 99.0145 56.369 98.6456 56.4926C98.2768 56.6162 97.8999 56.6307 97.5151 56.536C97.1303 56.4413 96.7677 56.2363 96.4272 55.9211C96.0868 55.6058 95.8528 55.2619 95.7253 54.8894C95.6014 54.513 95.5869 54.1362 95.6819 53.7589C95.7768 53.3816 95.9747 53.0306 96.2755 52.7058C96.569 52.3888 96.8964 52.1687 97.2578 52.0454C97.6191 51.922 97.9865 51.906 98.3598 51.9974C98.7368 52.0848 99.0897 52.2807 99.4184 52.5851ZM98.203 53.3677C98.0308 53.2083 97.8395 53.1401 97.629 53.1633C97.4186 53.1865 97.2318 53.2861 97.0688 53.4622C96.9129 53.6305 96.8296 53.8186 96.8187 54.0266C96.8114 54.2307 96.8851 54.4297 97.0398 54.6238L98.203 53.3677ZM102.88 52.3321C102.616 52.6178 102.331 52.8268 102.027 52.9593C101.722 53.0918 101.426 53.1446 101.138 53.1179C100.847 53.0876 100.588 52.9825 100.362 52.8024L101.281 51.8105C101.405 51.9038 101.546 51.9361 101.703 51.9074C101.861 51.8788 102.003 51.7959 102.13 51.659C102.246 51.5338 102.311 51.4161 102.326 51.3061C102.34 51.1886 102.308 51.0936 102.23 51.0211C102.136 50.9341 102.022 50.9196 101.888 50.9776C101.751 51.0319 101.553 51.1433 101.295 51.3117C101.023 51.4958 100.785 51.6389 100.582 51.7411C100.374 51.8396 100.153 51.8858 99.919 51.8797C99.6808 51.87 99.4502 51.7618 99.2272 51.5553C99.0393 51.3814 98.9162 51.1728 98.8578 50.9298C98.7991 50.6792 98.8172 50.4124 98.912 50.1295C99.0105 49.8427 99.1883 49.5603 99.4456 49.2825C99.8261 48.8716 100.227 48.643 100.648 48.5966C101.072 48.5464 101.469 48.6595 101.838 48.9359L100.979 49.8633C100.851 49.7739 100.714 49.7414 100.568 49.7659C100.425 49.7864 100.291 49.8652 100.164 50.0022C100.055 50.1196 99.9953 50.2313 99.9843 50.3374C99.9693 50.4399 100.001 50.5274 100.079 50.5998C100.173 50.6868 100.289 50.7031 100.426 50.6488C100.568 50.5905 100.76 50.4775 101.002 50.3096C101.289 50.125 101.535 49.9854 101.739 49.8907C101.939 49.7925 102.16 49.75 102.402 49.7634C102.644 49.7692 102.88 49.8752 103.111 50.0815C103.302 50.2591 103.424 50.4733 103.475 50.7242C103.526 50.9676 103.5 51.2308 103.398 51.514C103.299 51.7933 103.126 52.066 102.88 52.3321ZM105.47 47.7344L106.321 48.5225L105.848 49.0332C105.511 49.3971 105.16 49.5993 104.795 49.6397C104.427 49.6765 104.041 49.5083 103.638 49.135L102.335 47.9283L101.966 48.3274L101.132 47.5556L101.502 47.1564L100.703 46.4172L101.633 45.4135L102.431 46.1527L103.04 45.4953L103.873 46.2672L103.265 46.9246L104.579 48.1422C104.677 48.2327 104.769 48.2745 104.856 48.2674C104.943 48.2603 105.037 48.202 105.138 48.0924L105.47 47.7344Z" fill="white"/>
<path d="M136.502 42.5278L126.943 42.7076L122.079 38.0001L131.637 37.8203L136.502 42.5278ZM39.9267 139.094L39.935 132.974L39.7811 123.395L44.6457 128.103L39.9267 139.094Z" fill="#489797"/>
<path d="M39.9341 132.975L40.3466 95.2909L94.6017 38.5172L131.652 37.8203L39.9341 132.975Z" fill="#489797"/>
<path d="M45.7209 110.211C45.4157 109.928 45.2054 109.611 45.09 109.259C44.9716 108.904 44.9551 108.548 45.0405 108.191C45.1256 107.828 45.3068 107.497 45.584 107.198C45.9237 106.831 46.3114 106.606 46.747 106.525C47.1826 106.443 47.6084 106.513 48.0245 106.734L47.2581 107.562C47.0719 107.504 46.892 107.501 46.7185 107.553C46.5478 107.602 46.3958 107.699 46.2626 107.842C46.0479 108.074 45.9547 108.337 45.9829 108.63C46.0112 108.923 46.1603 109.195 46.4303 109.445C46.7003 109.695 46.9826 109.823 47.2772 109.829C47.5718 109.834 47.8264 109.721 48.0411 109.489C48.1743 109.346 48.2588 109.187 48.2946 109.013C48.3331 108.836 48.3163 108.657 48.2442 108.475L49.0106 107.648C49.2637 108.046 49.3661 108.465 49.3179 108.905C49.2668 109.343 49.0714 109.746 48.7316 110.112C48.4544 110.412 48.1397 110.619 47.7875 110.735C47.4351 110.844 47.0788 110.855 46.7188 110.767C46.3588 110.679 46.0262 110.494 45.7209 110.211ZM51.5648 107.08C51.3419 107.32 51.0895 107.49 50.8074 107.588C50.528 107.684 50.2413 107.699 49.9472 107.634C49.6559 107.566 49.3826 107.414 49.1272 107.177C48.8748 106.944 48.7049 106.683 48.6174 106.394C48.527 106.104 48.5201 105.814 48.5968 105.525C48.6734 105.236 48.8232 104.971 49.046 104.731C49.2689 104.49 49.5214 104.32 49.8035 104.222C50.0856 104.123 50.3751 104.108 50.6721 104.176C50.9661 104.241 51.2394 104.39 51.4918 104.624C51.7442 104.858 51.9142 105.122 52.0019 105.415C52.0894 105.704 52.0935 105.994 52.0141 106.285C51.9374 106.574 51.7877 106.839 51.5648 107.08ZM50.9133 106.476C51.0464 106.332 51.1064 106.162 51.0932 105.964C51.0826 105.763 50.979 105.572 50.7824 105.39C50.5858 105.208 50.3884 105.118 50.1904 105.12C49.995 105.119 49.8308 105.19 49.6976 105.334C49.5617 105.481 49.5017 105.651 49.5177 105.846C49.5307 106.038 49.637 106.227 49.8366 106.411C50.0332 106.593 50.2279 106.686 50.4205 106.69C50.6158 106.691 50.7801 106.62 50.9133 106.476ZM52.8796 100.662L55.3361 102.936L54.639 103.689L54.3044 103.379C54.3423 103.556 54.3339 103.742 54.2791 103.937C54.2241 104.125 54.1232 104.299 53.9764 104.458C53.8025 104.645 53.6079 104.773 53.3925 104.841C53.1742 104.906 52.9491 104.905 52.7173 104.837C52.4854 104.77 52.2624 104.637 52.0481 104.438L50.613 103.109L51.306 102.361L52.6399 103.596C52.8043 103.748 52.9713 103.824 53.1411 103.823C53.3109 103.822 53.4624 103.75 53.5956 103.606C53.7315 103.459 53.7933 103.301 53.7812 103.132C53.769 102.963 53.6808 102.802 53.5164 102.65L52.1825 101.414L52.8796 100.662ZM54.7401 98.5996C55.0064 98.312 55.3123 98.1701 55.6578 98.1738C56.003 98.1718 56.3385 98.3217 56.6643 98.6234L58.0994 99.9524L57.4064 100.701L56.0725 99.4655C55.9082 99.3133 55.7411 99.2377 55.5713 99.2385C55.4015 99.2394 55.25 99.3117 55.1168 99.4555C54.9836 99.5993 54.9231 99.7559 54.9353 99.9253C54.9475 100.095 55.0357 100.255 55.2001 100.408L56.534 101.643L55.8369 102.396L53.3804 100.121L54.0775 99.3681L54.4033 99.6697C54.3653 99.4929 54.3754 99.3113 54.4333 99.1251C54.4883 98.9362 54.5906 98.761 54.7401 98.5996ZM59.5445 98.4626C59.3461 98.6768 59.1328 98.8336 58.9045 98.933C58.6762 99.0323 58.4541 99.072 58.2382 99.052C58.0194 99.0292 57.8253 98.9503 57.656 98.8153L58.3449 98.0713C58.4382 98.1413 58.5438 98.1656 58.6619 98.1441C58.78 98.1226 58.8865 98.0604 58.9817 97.9577C59.0686 97.8638 59.1176 97.7756 59.1286 97.6931C59.1394 97.6049 59.1154 97.5337 59.0567 97.4793C58.9863 97.4141 58.9009 97.4032 58.8007 97.4467C58.6975 97.4874 58.5493 97.571 58.356 97.6973C58.1519 97.8353 57.9734 97.9427 57.8207 98.0193C57.665 98.0932 57.4994 98.1279 57.3237 98.1233C57.1451 98.116 56.9721 98.0349 56.8049 97.88C56.664 97.7495 56.5716 97.5931 56.5278 97.4108C56.4838 97.2229 56.4974 97.0228 56.5685 96.8106C56.6423 96.5955 56.7757 96.3837 56.9687 96.1754C57.254 95.8672 57.5546 95.6957 57.8703 95.661C58.1887 95.6233 58.4863 95.7081 58.7631 95.9154L58.119 96.611C58.023 96.5439 57.9202 96.5195 57.8105 96.5379C57.7036 96.5533 57.6025 96.6124 57.5074 96.7151C57.4258 96.8032 57.3809 96.887 57.3727 96.9665C57.3615 97.0434 57.3852 97.109 57.4439 97.1634C57.5144 97.2286 57.6012 97.2408 57.7043 97.2001C57.8102 97.1564 57.9541 97.0716 58.1361 96.9457C58.3516 96.8073 58.5358 96.7025 58.6887 96.6316C58.8388 96.5579 59.0045 96.526 59.1861 96.536C59.3674 96.5404 59.5445 96.6199 59.7175 96.7746C59.8613 96.9078 59.9524 97.0685 59.9907 97.2566C60.0289 97.4392 60.0096 97.6366 59.9328 97.849C59.8588 98.0585 59.7293 98.263 59.5445 98.4626ZM61.7336 93.4848C61.8041 93.55 61.8734 93.6224 61.9415 93.7018L60.3638 95.4055C60.5273 95.5351 60.6895 95.5954 60.8505 95.5864C61.0113 95.5717 61.1501 95.5013 61.267 95.3751C61.4409 95.1873 61.4826 94.9833 61.3921 94.7631L62.1341 93.9619C62.2574 94.1525 62.3334 94.3619 62.362 94.59C62.3933 94.8153 62.3709 95.0426 62.2948 95.2719C62.2187 95.5013 62.0882 95.7158 61.9034 95.9153C61.6805 96.156 61.4308 96.3227 61.1541 96.4154C60.8774 96.5081 60.5948 96.519 60.3062 96.4479C60.0176 96.3769 59.7456 96.2232 59.4903 95.9868C59.235 95.7503 59.0595 95.4924 58.9638 95.213C58.8709 94.9307 58.86 94.6481 58.9313 94.3651C59.0025 94.0822 59.1509 93.8189 59.3765 93.5753C59.5966 93.3376 59.8422 93.1725 60.1132 93.08C60.3842 92.9875 60.6597 92.9755 60.9397 93.044C61.2225 93.1096 61.4871 93.2565 61.7336 93.4848ZM60.8221 94.0717C60.693 93.9522 60.5495 93.9011 60.3916 93.9184C60.2338 93.9358 60.0937 94.0105 59.9714 94.1426C59.8546 94.2688 59.792 94.4099 59.7839 94.5659C59.7784 94.719 59.8337 94.8683 59.9497 95.0138L60.8221 94.0717ZM60.8087 90.4922L64.0664 93.509L63.3693 94.2618L60.1116 91.245L60.8087 90.4922ZM62.011 89.1938L65.2687 92.2106L64.5716 92.9634L61.3139 89.9466L62.011 89.1938ZM66.8446 90.5795C66.6218 90.8202 66.3693 90.9898 66.0872 91.0884C65.8078 91.184 65.5211 91.1993 65.227 91.1341C64.9357 91.0661 64.6624 90.9138 64.4071 90.6774C64.1547 90.4436 63.9847 90.1827 63.8972 89.8945C63.8068 89.6036 63.7999 89.3137 63.8766 89.0249C63.9532 88.7361 64.103 88.4713 64.3258 88.2307C64.5487 87.99 64.8012 87.8204 65.0833 87.7218C65.3654 87.6232 65.6549 87.6079 65.9519 87.6757C66.2459 87.7409 66.5192 87.8903 66.7716 88.124C67.024 88.3578 67.194 88.6215 67.2817 88.9154C67.3692 89.2036 67.3733 89.4935 67.2939 89.7853C67.2172 90.0741 67.0675 90.3389 66.8446 90.5795ZM66.1931 89.9762C66.3262 89.8324 66.3862 89.6616 66.373 89.464C66.3624 89.2634 66.2588 89.0721 66.0622 88.89C65.8656 88.7079 65.6682 88.6179 65.4702 88.6198C65.2748 88.6188 65.1106 88.6902 64.9774 88.834C64.8415 88.9808 64.7815 89.1515 64.7975 89.3462C64.8105 89.5382 64.9168 89.7265 65.1164 89.9114C65.313 90.0935 65.5077 90.1865 65.7003 90.1904C65.8956 90.1914 66.0599 90.12 66.1931 89.9762ZM67.0197 86.2136C66.9662 86.0005 66.9625 85.7926 67.0085 85.5899C67.0515 85.3844 67.1478 85.201 67.2973 85.0396L68.0941 85.7775L67.9025 85.9844C67.7286 86.1722 67.6392 86.3511 67.6344 86.5212C67.6267 86.6885 67.7241 86.8659 67.9266 87.0534L69.0668 88.1093L68.3696 88.8621L65.9132 86.5872L66.6103 85.8345L67.0197 86.2136ZM69.6274 83.3977C69.5739 83.1846 69.5702 82.9767 69.6162 82.774C69.6592 82.5685 69.7555 82.3851 69.905 82.2237L70.7018 82.9616L70.5102 83.1685C70.3362 83.3563 70.2469 83.5352 70.2421 83.7052C70.2344 83.8725 70.3317 84.0499 70.5342 84.2375L71.6744 85.2934L70.9773 86.0461L68.5208 83.7713L69.218 83.0185L69.6274 83.3977ZM73.5976 80.6734C73.668 80.7386 73.7373 80.811 73.8055 80.8905L72.2278 82.5942C72.3913 82.7237 72.5535 82.784 72.7145 82.775C72.8753 82.7604 73.0141 82.6899 73.131 82.5637C73.3049 82.3759 73.3466 82.1719 73.2561 81.9518L73.998 81.1506C74.1214 81.3411 74.1974 81.5505 74.2259 81.7787C74.2572 82.0039 74.2348 82.2312 74.1587 82.4606C74.0826 82.6899 73.9521 82.9044 73.7673 83.104C73.5445 83.3446 73.2947 83.5113 73.018 83.604C72.7414 83.6967 72.4588 83.7076 72.1701 83.6366C71.8815 83.5656 71.6096 83.4118 71.3542 83.1754C71.0989 82.9389 70.9234 82.681 70.8278 82.4017C70.7348 82.1193 70.724 81.8367 70.7952 81.5538C70.8664 81.2708 71.0148 81.0075 71.2404 80.7639C71.4606 80.5262 71.7061 80.3611 71.9771 80.2686C72.2481 80.1761 72.5237 80.1641 72.8037 80.2326C73.0864 80.2982 73.3511 80.4451 73.5976 80.6734ZM72.6861 81.2604C72.5569 81.1408 72.4134 81.0897 72.2556 81.1071C72.0977 81.1245 71.9577 81.1992 71.8354 81.3312C71.7185 81.4574 71.656 81.5985 71.6478 81.7545C71.6424 81.9076 71.6977 82.0569 71.8136 82.2025L72.6861 81.2604ZM73.8664 80.4627C73.611 80.2262 73.4355 79.9683 73.3399 79.6889C73.247 79.4066 73.2348 79.1254 73.3033 78.8454C73.3745 78.5625 73.5215 78.3006 73.7444 78.06C74.0298 77.7518 74.3483 77.5698 74.6999 77.5138C75.0543 77.4549 75.4082 77.5291 75.7614 77.7363L75.0195 78.5375C74.7691 78.4311 74.5543 78.4747 74.3749 78.6684C74.2472 78.8063 74.1995 78.9667 74.232 79.1494C74.2616 79.3294 74.3761 79.5118 74.5757 79.6967C74.7753 79.8815 74.9674 79.9831 75.1521 80.0014C75.3339 80.0171 75.4886 79.956 75.6163 79.818C75.7957 79.6243 75.8227 79.4068 75.6974 79.1653L76.4394 78.3641C76.6672 78.695 76.7668 79.0408 76.7382 79.4013C76.7096 79.7619 76.554 80.0948 76.2713 80.4C76.0484 80.6407 75.7987 80.8074 75.522 80.9001C75.2481 80.9899 74.9668 80.9992 74.6782 80.9282C74.3923 80.8543 74.1217 80.6991 73.8664 80.4627ZM78.7723 77.6994C78.5494 77.94 78.2969 78.1096 78.0148 78.2082C77.7354 78.3039 77.4487 78.3191 77.1547 78.254C76.8634 78.1859 76.59 78.0337 76.3347 77.7972C76.0823 77.5635 75.9124 77.3025 75.8249 77.0143C75.7344 76.7234 75.7276 76.4336 75.8042 76.1447C75.8809 75.8559 76.0306 75.5912 76.2535 75.3505C76.4764 75.1099 76.7288 74.9402 77.0109 74.8417C77.293 74.7431 77.5826 74.7277 77.8795 74.7956C78.1736 74.8607 78.4468 75.0101 78.6992 75.2439C78.9516 75.4776 79.1217 75.7414 79.2094 76.0352C79.2969 76.3234 79.3009 76.6134 79.2215 76.9051C79.1449 77.194 78.9951 77.4587 78.7723 77.6994ZM78.1207 77.096C78.2539 76.9522 78.3139 76.7815 78.3006 76.5839C78.2901 76.3833 78.1865 76.192 77.9899 76.0099C77.7932 75.8278 77.5959 75.7377 77.3978 75.7396C77.2025 75.7387 77.0382 75.8101 76.905 75.9539C76.7691 76.1006 76.7092 76.2713 76.7251 76.466C76.7382 76.658 76.8445 76.8464 77.0441 77.0312C77.2407 77.2133 77.4353 77.3063 77.6279 77.3102C77.8233 77.3112 77.9875 77.2398 78.1207 77.096ZM80.717 70.5482C80.9997 70.243 81.3164 70.0865 81.667 70.0787C82.0204 70.0679 82.3615 70.2147 82.6902 70.5191L84.1253 71.8482L83.4323 72.5965L82.0984 71.3613C81.9399 71.2145 81.7787 71.1443 81.6148 71.1506C81.4506 71.1512 81.3006 71.2249 81.1647 71.3717C81.0288 71.5184 80.9655 71.6751 80.9747 71.8418C80.9837 72.0027 81.0675 72.1566 81.226 72.3034L82.5599 73.5386L81.8668 74.287L80.5329 73.0518C80.3745 72.905 80.2132 72.8348 80.0493 72.8411C79.8852 72.8417 79.7352 72.9154 79.5993 73.0622C79.4634 73.2089 79.4 73.3656 79.4093 73.5322C79.4183 73.6932 79.502 73.8471 79.6605 73.9939L80.9944 75.2291L80.2973 75.9819L77.8408 73.7071L78.5379 72.9543L78.8461 73.2397C78.814 73.0682 78.8257 72.8937 78.8812 72.7161C78.9337 72.5358 79.032 72.3678 79.176 72.2123C79.3472 72.0274 79.5391 71.8997 79.7515 71.8293C79.9666 71.7559 80.1856 71.7461 80.4084 71.7998C80.3523 71.5897 80.3495 71.3718 80.4003 71.1463C80.4511 70.9207 80.5567 70.7214 80.717 70.5482ZM85.0326 65.888C85.3153 65.5827 85.632 65.4262 85.9826 65.4184C86.336 65.4077 86.6771 65.5545 87.0058 65.8589L88.441 67.1879L87.7479 67.9363L86.414 66.7011C86.2555 66.5543 86.0943 66.4841 85.9304 66.4903C85.7663 66.491 85.6162 66.5647 85.4803 66.7114C85.3444 66.8582 85.2811 67.0149 85.2903 67.1815C85.2994 67.3425 85.3831 67.4964 85.5416 67.6431L86.8755 68.8784L86.1824 69.6268L84.8485 68.3915C84.6901 68.2448 84.5289 68.1745 84.3649 68.1808C84.2008 68.1815 84.0508 68.2552 83.9149 68.4019C83.779 68.5487 83.7157 68.7053 83.7249 68.872C83.7339 69.033 83.8176 69.1869 83.9761 69.3336L85.31 70.5689L84.6129 71.3217L82.1564 69.0468L82.8535 68.2941L83.1617 68.5794C83.1296 68.408 83.1413 68.2335 83.1968 68.0559C83.2493 67.8755 83.3476 67.7076 83.4916 67.552C83.6629 67.3671 83.8547 67.2395 84.0671 67.169C84.2822 67.0957 84.5012 67.0859 84.724 67.1396C84.6679 66.9294 84.6652 66.7116 84.7159 66.486C84.7667 66.2605 84.8723 66.0611 85.0326 65.888ZM89.805 63.1717C89.8754 63.2369 89.9447 63.3093 90.0129 63.3888L88.4352 65.0925C88.5987 65.222 88.7609 65.2823 88.9219 65.2733C89.0827 65.2586 89.2215 65.1882 89.3384 65.062C89.5123 64.8742 89.554 64.6702 89.4635 64.4501L90.2054 63.6489C90.3288 63.8394 90.4048 64.0488 90.4334 64.277C90.4647 64.5022 90.4422 64.7295 90.3661 64.9589C90.29 65.1882 90.1596 65.4027 89.9748 65.6023C89.7519 65.8429 89.5021 66.0096 89.2255 66.1023C88.9488 66.195 88.6662 66.2059 88.3776 66.1349C88.089 66.0639 87.817 65.9101 87.5617 65.6737C87.3063 65.4372 87.1308 65.1793 87.0352 64.9C86.9423 64.6176 86.9314 64.335 87.0026 64.052C87.0739 63.7691 87.2223 63.5058 87.4478 63.2622C87.668 63.0245 87.9136 62.8594 88.1846 62.7669C88.4556 62.6744 88.7311 62.6624 89.0111 62.7309C89.2938 62.7965 89.5585 62.9434 89.805 63.1717ZM88.8935 63.7587C88.7643 63.6391 88.6209 63.588 88.463 63.6054C88.3052 63.6227 88.1651 63.6975 88.0428 63.8295C87.9259 63.9557 87.8634 64.0968 87.8553 64.2528C87.8498 64.4059 87.9051 64.5552 88.0211 64.7008L88.8935 63.7587ZM90.3438 60.1526C90.6102 59.865 90.9161 59.7231 91.2616 59.7268C91.6068 59.7248 91.9423 59.8747 92.2681 60.1764L93.7032 61.5054L93.0102 62.2538L91.6763 61.0185C91.5119 60.8664 91.3449 60.7907 91.1751 60.7915C91.0053 60.7924 90.8538 60.8647 90.7206 61.0085C90.5874 61.1523 90.5269 61.3089 90.5391 61.4783C90.5513 61.6477 90.6395 61.8084 90.8039 61.9606L92.1378 63.1959L91.4406 63.9487L88.9842 61.6739L89.6813 60.9211L90.007 61.2228C89.9691 61.0459 89.9791 60.8643 90.0371 60.6781C90.0921 60.4892 90.1944 60.314 90.3438 60.1526ZM92.8164 59.9905C92.564 59.7568 92.3859 59.5046 92.2821 59.234C92.181 58.9605 92.1552 58.694 92.2047 58.4345C92.2542 58.1751 92.3727 57.9441 92.5602 57.7416C92.7097 57.5802 92.8793 57.4647 93.0692 57.3951C93.2617 57.3226 93.4505 57.3012 93.6356 57.3309L92.4954 56.275L93.1925 55.5222L96.4502 58.539L95.7531 59.2918L95.4009 58.9657C95.4531 59.1448 95.4533 59.333 95.4014 59.5303C95.3522 59.7247 95.2475 59.9085 95.0871 60.0816C94.8996 60.2841 94.6784 60.42 94.4235 60.4892C94.1656 60.5557 93.8965 60.5491 93.616 60.4693C93.3353 60.3838 93.0688 60.2242 92.8164 59.9905ZM94.5249 58.1544C94.3371 57.9805 94.1399 57.896 93.9335 57.9011C93.7298 57.9033 93.5586 57.9792 93.42 58.1289C93.2814 58.2786 93.2175 58.4565 93.2282 58.6627C93.2387 58.8633 93.3379 59.0505 93.5258 59.2245C93.7136 59.3984 93.9108 59.4857 94.1175 59.4862C94.3239 59.4811 94.4964 59.4038 94.635 59.2541C94.7736 59.1044 94.8362 58.9279 94.8228 58.7246C94.812 58.5184 94.7127 58.3283 94.5249 58.1544ZM95.5833 57.0026C95.3309 56.7689 95.1528 56.5167 95.049 56.2461C94.948 55.9726 94.9222 55.7061 94.9716 55.4467C95.0211 55.1872 95.1396 54.9562 95.3272 54.7537C95.4875 54.5805 95.6627 54.462 95.8527 54.3981C96.0455 54.3313 96.2317 54.3156 96.4114 54.3512L96.0636 54.0291L96.7607 53.2763L99.2172 55.5511L98.5201 56.3039L98.1723 55.9819C98.2188 56.1612 98.2161 56.3496 98.1642 56.5469C98.1151 56.7412 98.0103 56.925 97.85 57.0981C97.6652 57.2977 97.4453 57.4321 97.1904 57.5013C96.9325 57.5678 96.6634 57.5612 96.3829 57.4814C96.1023 57.3959 95.8357 57.2363 95.5833 57.0026ZM97.2918 55.1665C97.104 54.9926 96.9068 54.9082 96.7004 54.9132C96.4967 54.9154 96.3255 54.9913 96.1869 55.141C96.0483 55.2907 95.9844 55.4686 95.9951 55.6748C96.0057 55.8754 96.1049 56.0627 96.2927 56.2366C96.4805 56.4105 96.6778 56.4978 96.8844 56.4983C97.0908 56.4933 97.2634 56.4159 97.402 56.2662C97.5406 56.1165 97.6031 55.94 97.5897 55.7367C97.5789 55.5305 97.4796 55.3405 97.2918 55.1665ZM100.351 53.0463L100.989 53.6374L100.635 54.0204C100.382 54.2933 100.119 54.445 99.8455 54.4753C99.5691 54.5029 99.2798 54.3767 98.9775 54.0968L98.0002 53.1917L97.723 53.4911L97.0979 52.9122L97.3751 52.6128L96.7764 52.0584L97.4735 51.3056L98.0722 51.86L98.5288 51.367L99.1539 51.9459L98.6973 52.4389L99.6835 53.3521C99.7568 53.4201 99.826 53.4514 99.8909 53.4461C99.9558 53.4407 100.026 53.397 100.102 53.3148L100.351 53.0463ZM99.0165 50.3282C98.8942 50.4603 98.7555 50.5335 98.6003 50.548C98.445 50.5568 98.3101 50.5082 98.1956 50.4022C98.0782 50.2935 98.0194 50.1627 98.0192 50.0099C98.0188 49.8514 98.0797 49.7061 98.202 49.574C98.3216 49.4449 98.4591 49.3759 98.6144 49.3671C98.7696 49.3527 98.9058 49.3998 99.0232 49.5085C99.1377 49.6145 99.1951 49.7468 99.1955 49.9053C99.1957 50.0581 99.1361 50.1991 99.0165 50.3282ZM99.6183 50.1905L102.075 52.4653L101.378 53.2181L98.9212 50.9433L99.6183 50.1905ZM103.651 50.8342C103.428 51.0748 103.175 51.2445 102.893 51.343C102.614 51.4387 102.327 51.4539 102.033 51.3888C101.742 51.3207 101.468 51.1685 101.213 50.932C100.961 50.6983 100.791 50.4373 100.703 50.1491C100.613 49.8582 100.606 49.5684 100.683 49.2796C100.759 48.9907 100.909 48.726 101.132 48.4853C101.355 48.2447 101.607 48.0751 101.889 47.9765C102.171 47.8779 102.461 47.8625 102.758 47.9304C103.052 47.9955 103.325 48.145 103.578 48.3787C103.83 48.6124 104 48.8762 104.088 49.17C104.175 49.4582 104.179 49.7482 104.1 50.04C104.023 50.3288 103.874 50.5935 103.651 50.8342ZM102.999 50.2308C103.132 50.087 103.192 49.9163 103.179 49.7187C103.169 49.5181 103.065 49.3268 102.868 49.1447C102.672 48.9626 102.474 48.8725 102.276 48.8745C102.081 48.8735 101.917 48.9449 101.783 49.0887C101.648 49.2354 101.588 49.4062 101.604 49.6008C101.617 49.7928 101.723 49.9812 101.923 50.166C102.119 50.3481 102.314 50.4411 102.506 50.4451C102.702 50.446 102.866 50.3746 102.999 50.2308ZM104.079 45.3207C104.345 45.0331 104.651 44.8911 104.997 44.8948C105.342 44.8929 105.677 45.0428 106.003 45.3444L107.438 46.6735L106.745 47.4218L105.411 46.1866C105.247 46.0344 105.08 45.9587 104.91 45.9596C104.74 45.9604 104.589 46.0328 104.456 46.1766C104.323 46.3204 104.262 46.477 104.274 46.6463C104.286 46.8157 104.375 46.9765 104.539 47.1287L105.873 48.3639L105.176 49.1167L102.719 46.8419L103.416 46.0891L103.742 46.3908C103.704 46.2139 103.714 46.0324 103.772 45.8462C103.827 45.6573 103.929 45.4821 104.079 45.3207Z" fill="white"/>
</svg>
